<?xml version="1.0" encoding="utf-8"?>
<!-- Generator: Adobe Illustrator 22.0.1, SVG Export Plug-In . SVG Version: 6.00 Build 0)  -->
<svg version="1.1" id="Layer_1" xmlns="http://www.w3.org/2000/svg" xmlns:xlink="http://www.w3.org/1999/xlink" x="0px" y="0px"
	 viewBox="0 0 640 480" style="enable-background:new 0 0 640 480;" xml:space="preserve">
<style type="text/css">
	.st0{fill:#191919;}
	.st1{fill:none;}
</style>
<g>
	<g transform="translate(-55 -103)">
		<path class="st0" d="M249.8,146.8c16.1-0.3,32.1,1.3,47.8,4.9c13.2,2.9,25.7,8.2,36.9,15.8c10.3,7.5,18.5,17.6,23.7,29.3
			c6,14.4,8.9,29.8,8.5,45.4c0.7,17.1-3.7,34-12.5,48.6c-9.3,13.8-22.2,24.8-37.3,31.9c20.5,5.5,38.3,18.1,50.2,35.6
			c11.5,18.5,17.3,40,16.6,61.8c0.4,17.4-3.2,34.6-10.5,50.4c-6.7,13.8-16.6,25.7-28.8,35c-12.6,9.2-26.7,15.9-41.7,20
			c-15.6,4.3-31.6,6.5-47.8,6.4H77.6V146.8H249.8z M239.6,302.6c12.6,0.5,25.1-3.3,35.3-10.7c9.9-8.8,15.1-21.8,13.9-35
			c0.3-7.6-1.2-15.2-4.4-22.1c-2.7-5.5-7-10.1-12.3-13.2c-5.3-3.5-11.3-5.8-17.6-6.8c-6.8-1.3-13.7-1.9-20.7-1.8H158v90h81.6V302.6z
			 M244,466.5c7.6,0.1,15.3-0.7,22.7-2.5c6.8-1.5,13.2-4.3,19-8.2c5.6-3.9,10.2-9.2,13.2-15.4c3.5-7.8,5.2-16.4,4.7-25
			c1.6-15.9-4.3-31.6-15.9-42.5c-12.1-8.9-27-13.4-42-12.5H158v106L244,466.5z"/>
		<path class="st0" d="M498.1,465.1c12.7,11.8,29.8,17.9,47.1,16.8c13.6,0.3,26.9-3.8,38-11.8c9-5.8,15.8-14.5,19.3-24.5h64.1
			c-6.8,28.7-23.5,54.1-47.1,71.8c-22.7,15-49.4,22.6-76.6,21.8c-19.4,0.3-38.6-3.4-56.6-10.7c-16.2-6.8-30.8-17-42.7-30
			c-11.8-13.6-20.9-29.4-26.8-46.4c-6.6-19.1-9.8-39.1-9.5-59.3c-0.1-19.8,3.2-39.5,9.8-58.2c18.2-53.9,69.1-90,126.1-89.3
			c20.5-0.4,40.8,4.4,58.9,13.9c16.4,9,30.5,21.6,41.3,36.8c11.1,16,19,33.9,23.4,52.9c4.8,20.3,6.5,41.3,5.1,62.1H481.1
			C479.5,430.5,485.6,449.9,498.1,465.1z M581.8,318.6c-10.8-10.8-25.8-16.4-41-15.4c-10-0.4-19.9,1.8-28.8,6.4
			c-7,3.9-13.3,9.1-18.3,15.4c-4.5,5.9-7.8,12.5-9.8,19.6c-1.8,5.9-3,12-3.4,18.2h118.2C597.7,346.8,591.8,331.4,581.8,318.6
			L581.8,318.6z"/>
		<rect x="465.3" y="172.6" class="st0" width="148.1" height="37.9"/>
	</g>
</g>
<rect x="2" y="26" class="st1" width="636.1" height="428.1"/>
</svg>
