<svg xmlns="http://www.w3.org/2000/svg" xmlns:xlink="http://www.w3.org/1999/xlink" version="1.1" width="256" height="256" viewBox="0 0 256 256" xml:space="preserve">

<defs>
</defs>
<g style="stroke: none; stroke-width: 0; stroke-dasharray: none; stroke-linecap: butt; stroke-linejoin: miter; stroke-miterlimit: 10; fill: none; fill-rule: nonzero; opacity: 1;" transform="translate(1.4065934065934016 1.4065934065934016) scale(2.81 2.81)" >
	<path d="M 86.292 80.897 l -9.169 -9.169 l 3.36 -3.36 c 2.302 -2.303 2.302 -6.049 0 -8.351 L 67.686 47.22 c 0.701 -1.505 1.307 -3.066 1.803 -4.679 l 0.881 -2.867 h 0.242 c 6.484 0 11.76 -5.275 11.76 -11.759 c 0 -2.689 -2.188 -4.877 -4.878 -4.877 h -7.203 L 64.457 4.176 c -0.474 -1.533 -1.52 -2.783 -2.948 -3.517 c -1.427 -0.733 -3.051 -0.86 -4.577 -0.354 L 49.28 2.845 c -2.76 0.917 -5.8 0.917 -8.56 0 l -7.651 -2.541 c -1.522 -0.505 -3.149 -0.379 -4.577 0.354 c -1.428 0.734 -2.475 1.983 -2.949 3.517 L 19.71 23.038 h -7.203 c -2.689 0 -4.877 2.188 -4.877 4.877 c 0 6.484 5.275 11.759 11.759 11.759 h 0.242 l 0.881 2.867 c 0.495 1.613 1.101 3.173 1.802 4.679 L 9.518 60.016 c -2.302 2.303 -2.302 6.049 0 8.351 l 3.36 3.36 l -9.169 9.17 c -1.554 1.554 -1.997 3.779 -1.156 5.81 c 0.841 2.03 2.728 3.292 4.927 3.292 h 24.085 h 9.076 h 8.723 h 9.075 h 24.086 c 2.197 0 4.085 -1.262 4.926 -3.292 C 88.288 84.677 87.846 82.451 86.292 80.897 z M 79.069 61.43 c 1.521 1.522 1.521 4.001 0 5.523 l -4.065 4.065 c -0.001 0.001 -0.002 0.001 -0.002 0.002 L 58.022 87.999 h -7.297 l 9.561 -30.334 c 2.567 -2.511 4.744 -5.389 6.455 -8.562 L 79.069 61.43 z M 39.826 62.456 l -1.306 -0.718 c -0.687 -0.378 -1.353 -0.785 -2.008 -1.206 c -0.029 -0.019 -0.058 -0.038 -0.087 -0.056 c -0.332 -0.216 -0.654 -0.447 -0.978 -0.674 c -0.297 -0.207 -0.595 -0.411 -0.884 -0.627 c -0.418 -0.313 -0.826 -0.641 -1.23 -0.974 c -0.189 -0.155 -0.379 -0.31 -0.564 -0.469 c -0.43 -0.37 -0.851 -0.752 -1.264 -1.145 c -2.883 -2.74 -5.288 -5.968 -7.081 -9.609 c -0.004 -0.008 -0.012 -0.012 -0.017 -0.02 c -0.784 -1.601 -1.453 -3.27 -1.985 -5.004 l -1.118 -3.639 c 0.064 -1.362 1.059 -2.485 2.362 -2.744 c 0.186 -0.037 0.379 -0.057 0.575 -0.057 h 41.513 c 0.197 0 0.389 0.019 0.575 0.057 c 1.303 0.259 2.299 1.382 2.363 2.744 l -0.012 0.039 l -0.008 0.027 c 0 0 0 0 0 0 l -1.098 3.572 c -0.532 1.733 -1.201 3.401 -1.984 5.001 c -0.005 0.009 -0.014 0.014 -0.019 0.023 c -1.792 3.638 -4.194 6.864 -7.075 9.604 c -0.417 0.396 -0.842 0.782 -1.276 1.156 c -0.179 0.154 -0.362 0.302 -0.544 0.452 c -0.41 0.338 -0.824 0.671 -1.248 0.989 c -0.282 0.21 -0.572 0.409 -0.861 0.611 c -0.327 0.23 -0.652 0.463 -0.986 0.68 c -0.037 0.024 -0.073 0.048 -0.11 0.071 c -0.617 0.396 -1.245 0.778 -1.891 1.136 c -0.025 0.014 -0.048 0.03 -0.073 0.043 c -0.01 0.005 -0.02 0.012 -0.03 0.017 l -1.307 0.719 C 46.935 64.237 43.067 64.238 39.826 62.456 z M 27.454 4.766 c 0.314 -1.016 1.007 -1.843 1.953 -2.33 c 0.945 -0.486 2.022 -0.57 3.032 -0.234 l 7.651 2.541 c 3.166 1.051 6.654 1.051 9.821 0 l 7.651 -2.541 c 1.011 -0.334 2.086 -0.251 3.031 0.234 c 0.945 0.487 1.639 1.314 1.953 2.33 l 5.65 18.272 H 21.804 L 27.454 4.766 z M 9.63 27.915 c 0 -1.586 1.291 -2.877 2.877 -2.877 h 7.94 h 49.105 h 7.94 c 1.587 0 2.878 1.291 2.878 2.877 c 0 5.372 -4.364 9.745 -9.734 9.759 c -0.006 -0.039 -0.022 -0.075 -0.029 -0.114 c -0.023 -0.124 -0.06 -0.242 -0.092 -0.362 c -0.048 -0.181 -0.098 -0.359 -0.165 -0.531 c -0.047 -0.12 -0.103 -0.233 -0.158 -0.349 c -0.078 -0.161 -0.16 -0.317 -0.254 -0.467 c -0.068 -0.109 -0.141 -0.214 -0.217 -0.317 c -0.105 -0.141 -0.216 -0.276 -0.334 -0.405 c -0.087 -0.095 -0.174 -0.186 -0.268 -0.274 c -0.129 -0.121 -0.267 -0.231 -0.409 -0.337 c -0.101 -0.076 -0.199 -0.152 -0.306 -0.221 c -0.155 -0.099 -0.319 -0.182 -0.485 -0.263 c -0.108 -0.053 -0.212 -0.112 -0.325 -0.157 c -0.19 -0.076 -0.388 -0.13 -0.589 -0.183 c -0.101 -0.027 -0.197 -0.064 -0.3 -0.084 c -0.308 -0.06 -0.624 -0.096 -0.95 -0.096 H 24.244 c -0.325 0 -0.642 0.036 -0.95 0.096 c -0.103 0.02 -0.198 0.057 -0.298 0.083 c -0.201 0.053 -0.401 0.107 -0.591 0.184 c -0.112 0.045 -0.215 0.103 -0.323 0.156 c -0.167 0.082 -0.331 0.165 -0.487 0.265 c -0.106 0.068 -0.204 0.144 -0.304 0.219 c -0.142 0.107 -0.28 0.217 -0.41 0.339 c -0.093 0.087 -0.18 0.179 -0.266 0.273 c -0.119 0.13 -0.23 0.264 -0.335 0.406 c -0.076 0.103 -0.149 0.207 -0.217 0.316 c -0.094 0.151 -0.177 0.307 -0.255 0.468 c -0.056 0.115 -0.111 0.228 -0.158 0.348 c -0.067 0.172 -0.117 0.35 -0.165 0.53 c -0.032 0.121 -0.069 0.239 -0.092 0.363 c -0.007 0.039 -0.023 0.075 -0.029 0.114 C 13.995 37.661 9.63 33.288 9.63 27.915 z M 10.932 61.43 l 12.327 -12.327 c 1.712 3.173 3.888 6.052 6.456 8.562 l 9.561 30.334 h -7.298 L 14.999 71.02 c 0 0 -0.001 -0.001 -0.001 -0.001 l -4.065 -4.065 C 9.409 65.431 9.409 62.953 10.932 61.43 z M 7.479 87.999 c -1.642 0 -2.667 -1.062 -3.079 -2.058 c -0.412 -0.994 -0.438 -2.471 0.723 -3.631 l 9.169 -9.17 l 14.858 14.858 H 7.479 z M 41.372 87.999 l -8.76 -27.791 c 0.756 0.595 1.537 1.162 2.344 1.698 c 0.054 0.036 0.109 0.071 0.164 0.107 c 0.147 0.097 0.295 0.192 0.444 0.287 c 0.651 0.414 1.312 0.816 1.993 1.19 l 1.306 0.718 c 1.921 1.057 4.029 1.585 6.137 1.585 c 0 0 0 0 0 0 c 2.107 0 4.216 -0.528 6.137 -1.585 l 1.307 -0.717 c 0 -0.001 0 -0.001 0.001 -0.001 c 0.012 -0.007 0.023 -0.015 0.036 -0.021 c 0.666 -0.367 1.313 -0.76 1.951 -1.165 c 0.15 -0.096 0.3 -0.191 0.448 -0.289 c 0.057 -0.037 0.114 -0.074 0.17 -0.111 c 0.805 -0.535 1.584 -1.101 2.338 -1.694 l -8.76 27.791 H 41.372 z M 85.6 85.942 c -0.412 0.995 -1.437 2.058 -3.078 2.058 H 60.85 l 14.858 -14.858 l 9.169 9.169 C 86.038 83.471 86.012 84.948 85.6 85.942 z" style="stroke: none; stroke-width: 1; stroke-dasharray: none; stroke-linecap: butt; stroke-linejoin: miter; stroke-miterlimit: 10; fill: rgb(0,0,0); fill-rule: nonzero; opacity: 1;" transform=" matrix(1 0 0 1 0 0) " stroke-linecap="round" />
</g>
</svg>