<svg xmlns="http://www.w3.org/2000/svg" xmlns:xlink="http://www.w3.org/1999/xlink" version="1.1" width="256" height="256" viewBox="0 0 256 256" xml:space="preserve">

<defs>
</defs>
<g style="stroke: none; stroke-width: 0; stroke-dasharray: none; stroke-linecap: butt; stroke-linejoin: miter; stroke-miterlimit: 10; fill: none; fill-rule: nonzero; opacity: 1;" transform="translate(1.4065934065934016 1.4065934065934016) scale(2.81 2.81)" >
	<path d="M 76.517 62.728 H 74.56 v -6.235 c 0 -3.168 -2.578 -5.746 -5.746 -5.746 s -5.746 2.578 -5.746 5.746 v 6.235 h -1.956 c -0.553 0 -1 0.447 -1 1 v 5.68 c 0 4.799 3.903 8.702 8.702 8.702 s 8.703 -3.903 8.703 -8.702 v -5.68 C 77.517 63.175 77.069 62.728 76.517 62.728 z M 65.067 56.492 c 0 -2.065 1.681 -3.746 3.746 -3.746 s 3.746 1.681 3.746 3.746 v 6.235 h -7.492 V 56.492 z M 75.517 69.407 c 0 3.695 -3.007 6.702 -6.703 6.702 c -3.695 0 -6.702 -3.007 -6.702 -6.702 v -4.68 h 1.956 h 9.492 h 1.957 V 69.407 z" style="stroke: none; stroke-width: 1; stroke-dasharray: none; stroke-linecap: butt; stroke-linejoin: miter; stroke-miterlimit: 10; fill: rgb(0,0,0); fill-rule: nonzero; opacity: 1;" transform=" matrix(1 0 0 1 0 0) " stroke-linecap="round" />
	<path d="M 68.813 68.196 c -0.553 0 -1 0.447 -1 1 v 1.728 c 0 0.553 0.447 1 1 1 s 1 -0.447 1 -1 v -1.728 C 69.813 68.644 69.366 68.196 68.813 68.196 z" style="stroke: none; stroke-width: 1; stroke-dasharray: none; stroke-linecap: butt; stroke-linejoin: miter; stroke-miterlimit: 10; fill: rgb(0,0,0); fill-rule: nonzero; opacity: 1;" transform=" matrix(1 0 0 1 0 0) " stroke-linecap="round" />
	<path d="M 86.676 47.573 c 0.223 -1.766 0.342 -3.551 0.342 -5.325 C 87.018 18.952 68.065 0 44.77 0 C 21.474 0 2.522 18.952 2.522 42.248 S 21.474 84.495 44.77 84.495 c 4.313 0 8.576 -0.664 12.688 -1.959 c 3.194 3.369 7.084 5.602 10.939 7.373 C 68.528 89.97 68.671 90 68.813 90 s 0.285 -0.03 0.417 -0.091 c 9.023 -4.145 18.248 -10.796 18.248 -28.704 v -12.67 C 87.479 48.055 87.132 47.668 86.676 47.573 z M 68.803 38.858 c -0.079 0.001 -0.155 0.024 -0.232 0.043 c -0.041 0.01 -0.084 0.009 -0.124 0.025 c -0.114 0.045 -0.222 0.11 -0.317 0.199 c -4.034 3.767 -8.091 6.279 -12.116 7.522 c 0.04 -1.488 0.066 -2.965 0.066 -4.399 c 0 -2.976 -0.086 -5.977 -0.252 -8.936 c 4.952 0.344 9.422 0.908 13.293 1.625 c 0.157 1.365 0.275 2.752 0.343 4.16 c -0.05 -0.043 -0.111 -0.065 -0.167 -0.096 c -0.047 -0.027 -0.089 -0.062 -0.139 -0.081 c -0.067 -0.024 -0.136 -0.028 -0.206 -0.038 C 68.903 38.875 68.854 38.857 68.803 38.858 z M 83.548 47.128 c -0.332 -0.069 -0.664 -0.135 -0.997 -0.221 c -0.291 -0.076 -0.582 -0.169 -0.873 -0.258 c -0.328 -0.1 -0.655 -0.195 -0.984 -0.312 c -0.298 -0.106 -0.596 -0.232 -0.893 -0.352 c -0.301 -0.121 -0.601 -0.237 -0.902 -0.372 c -0.049 -0.022 -0.099 -0.045 -0.148 -0.067 c -0.279 -0.128 -0.559 -0.273 -0.839 -0.413 c -0.292 -0.146 -0.583 -0.285 -0.875 -0.444 c -0.032 -0.018 -0.065 -0.034 -0.097 -0.052 c -0.311 -0.171 -0.623 -0.365 -0.934 -0.552 c -0.302 -0.181 -0.604 -0.351 -0.906 -0.546 c -0.346 -0.223 -0.691 -0.472 -1.037 -0.713 c -0.219 -0.153 -0.437 -0.297 -0.656 -0.457 c -0.143 -0.105 -0.286 -0.214 -0.429 -0.321 c -0.314 -0.237 -0.628 -0.488 -0.941 -0.74 c -0.121 -0.097 -0.243 -0.188 -0.364 -0.288 c -0.05 -0.041 -0.1 -0.082 -0.151 -0.124 c -0.037 -1.887 -0.149 -3.74 -0.333 -5.552 c 8.675 1.831 13.829 4.445 13.829 6.904 c 0 1.674 -0.282 3.353 -0.838 5.005 C 83.969 47.216 83.758 47.172 83.548 47.128 z M 70.943 33.263 c -0.527 -3.928 -1.395 -7.638 -2.55 -11.06 c 8.364 3.747 14.3 9.424 16.068 15.961 C 81.694 36.099 76.868 34.456 70.943 33.263 z M 68.846 32.865 c -4.049 -0.715 -8.523 -1.233 -13.142 -1.552 c -0.319 -4.626 -0.838 -9.105 -1.555 -13.158 c 4.175 0.616 8.101 1.63 11.66 2.979 C 67.184 24.714 68.219 28.665 68.846 32.865 z M 53.706 31.188 c -2.959 -0.166 -5.961 -0.252 -8.936 -0.252 c -2.976 0 -5.977 0.086 -8.937 0.252 c 0.344 -4.956 0.909 -9.43 1.627 -13.303 c 2.372 -0.269 4.813 -0.417 7.31 -0.417 c 2.497 0 4.937 0.148 7.309 0.417 C 52.796 21.758 53.361 26.232 53.706 31.188 z M 53.756 16.084 c -1.191 -5.918 -2.83 -10.741 -4.892 -13.513 c 6.487 1.79 12.163 7.742 15.919 16.099 C 61.362 17.498 57.658 16.622 53.756 16.084 z M 51.673 15.831 c -2.248 -0.235 -4.552 -0.363 -6.904 -0.363 c -2.352 0 -4.656 0.128 -6.904 0.364 C 39.696 7.155 42.311 2 44.77 2 S 49.843 7.155 51.673 15.831 z M 35.783 16.084 c -3.924 0.541 -7.649 1.424 -11.086 2.605 c 3.747 -8.397 9.435 -14.36 15.989 -16.133 C 38.619 5.325 36.976 10.155 35.783 16.084 z M 35.389 18.154 c -0.717 4.054 -1.236 8.533 -1.555 13.158 c -4.625 0.319 -9.104 0.838 -13.158 1.555 c 0.619 -4.196 1.641 -8.14 3 -11.713 C 27.25 19.795 31.193 18.774 35.389 18.154 z M 19.99 42.248 c 0 -2.497 0.148 -4.937 0.417 -7.309 c 3.873 -0.717 8.347 -1.282 13.303 -1.627 c -0.166 2.959 -0.252 5.961 -0.252 8.936 c 0 2.976 0.086 5.977 0.252 8.937 c -4.956 -0.344 -9.43 -0.909 -13.303 -1.627 C 20.138 47.185 19.99 44.744 19.99 42.248 z M 18.606 33.261 c -5.929 1.193 -10.758 2.836 -13.528 4.903 c 1.773 -6.554 7.735 -12.243 16.133 -15.989 C 20.03 25.612 19.147 29.337 18.606 33.261 z M 18.353 35.344 c -0.235 2.248 -0.363 4.552 -0.363 6.904 c 0 2.352 0.128 4.656 0.364 6.904 c -8.677 -1.831 -13.831 -4.445 -13.831 -6.904 C 4.522 39.789 9.677 37.175 18.353 35.344 z M 18.606 51.234 c 0.541 3.924 1.424 7.649 2.605 11.086 c -8.397 -3.747 -14.36 -9.436 -16.133 -15.989 C 7.847 48.398 12.677 50.041 18.606 51.234 z M 20.676 51.628 c 4.053 0.717 8.532 1.236 13.158 1.555 c 0.319 4.625 0.838 9.104 1.555 13.158 c -4.196 -0.619 -8.139 -1.641 -11.712 -3 C 22.317 59.767 21.296 55.824 20.676 51.628 z M 50.149 61.205 c 0 0.801 0.025 1.572 0.061 2.329 c 0.004 0.073 0.003 0.149 0.007 0.221 c 0.005 0.092 0.011 0.183 0.017 0.275 c 0.001 0.012 0.002 0.024 0.002 0.036 c 0.004 0.073 0.007 0.146 0.012 0.219 c 0.042 0.658 0.099 1.298 0.168 1.922 c 0.018 0.168 0.041 0.332 0.061 0.498 c 0.003 0.022 0.005 0.045 0.008 0.067 c -1.91 0.169 -3.828 0.255 -5.716 0.255 c -2.497 0 -4.937 -0.148 -7.31 -0.417 c -0.717 -3.873 -1.283 -8.347 -1.627 -13.303 c 2.959 0.166 5.961 0.252 8.936 0.252 c 1.801 0 3.602 -0.036 5.38 -0.094 V 61.205 z M 35.783 68.411 c 1.193 5.929 2.836 10.758 4.903 13.528 c -6.554 -1.773 -12.243 -7.735 -15.989 -16.133 C 28.133 66.987 31.859 67.87 35.783 68.411 z M 37.865 68.664 c 2.248 0.235 4.552 0.364 6.904 0.364 c 1.984 0 4 -0.11 6.007 -0.292 c 0.012 0.064 0.025 0.128 0.036 0.192 c 0.041 0.219 0.086 0.43 0.13 0.645 c 0.017 0.082 0.032 0.165 0.05 0.247 c 0.065 0.304 0.134 0.601 0.206 0.896 c -2.103 8.678 -4.695 11.78 -6.429 11.78 C 42.311 82.495 39.696 77.34 37.865 68.664 z M 52.303 74.288 c 0.679 1.776 1.495 3.368 2.424 4.795 c -1.892 1.36 -3.856 2.309 -5.872 2.857 C 50.297 79.998 51.431 77.18 52.303 74.288 z M 51.101 47.536 c -0.533 0.026 -0.951 0.466 -0.951 0.999 v 2.937 c -1.775 0.059 -3.58 0.088 -5.38 0.088 c -3.157 0 -6.182 -0.089 -9.062 -0.25 c -0.161 -2.88 -0.25 -5.905 -0.25 -9.062 c 0 -3.157 0.089 -6.181 0.25 -9.061 c 2.88 -0.161 5.905 -0.25 9.062 -0.25 c 3.157 0 6.181 0.089 9.061 0.25 c 0.161 2.88 0.25 5.904 0.25 9.061 c 0 1.6 -0.025 3.251 -0.075 4.915 c -0.028 0.006 -0.057 0.01 -0.085 0.016 c -0.412 0.082 -0.821 0.148 -1.228 0.204 c -0.088 0.012 -0.176 0.025 -0.264 0.035 C 51.981 47.473 51.537 47.515 51.101 47.536 z M 83.611 31.72 c -3.361 -4.964 -9.027 -9.154 -16.135 -12.038 C 64.635 12.511 60.462 6.839 55.486 3.46 C 69.14 7.237 79.899 18.04 83.611 31.72 z M 34.242 3.406 c -4.987 3.377 -9.194 9.08 -12.079 16.235 C 15.008 22.527 9.305 26.733 5.928 31.72 C 9.657 17.977 20.498 7.135 34.242 3.406 z M 5.928 52.774 c 3.377 4.987 9.08 9.194 16.235 12.079 c 2.885 7.155 7.092 12.858 12.079 16.235 C 20.498 77.36 9.657 66.519 5.928 52.774 z M 55.404 81.046 c 0.159 -0.108 0.315 -0.231 0.472 -0.344 c 0.049 0.063 0.1 0.124 0.15 0.186 C 55.821 80.948 55.611 80.989 55.404 81.046 z M 85.479 61.205 c 0 16.501 -8.354 22.799 -16.665 26.692 c -3.863 -1.81 -7.734 -4.141 -10.773 -7.773 c -0.124 -0.147 -0.242 -0.298 -0.362 -0.448 c -0.451 -0.568 -0.882 -1.165 -1.29 -1.797 c -0.066 -0.102 -0.132 -0.202 -0.196 -0.305 c -0.311 -0.499 -0.607 -1.019 -0.888 -1.56 c -0.069 -0.132 -0.135 -0.266 -0.201 -0.401 c -0.26 -0.523 -0.507 -1.064 -0.737 -1.628 c -0.149 -0.367 -0.293 -0.739 -0.426 -1.119 c -0.124 -0.349 -0.242 -0.706 -0.354 -1.07 c -0.143 -0.468 -0.274 -0.946 -0.395 -1.432 c -0.037 -0.146 -0.072 -0.295 -0.107 -0.444 c -0.068 -0.291 -0.129 -0.587 -0.19 -0.885 c -0.086 -0.424 -0.166 -0.853 -0.237 -1.291 c -0.064 -0.397 -0.124 -0.798 -0.175 -1.207 c -0.062 -0.495 -0.112 -1.002 -0.156 -1.514 c -0.031 -0.354 -0.067 -0.704 -0.089 -1.065 c 0 -0.007 -0.001 -0.014 -0.001 -0.021 c -0.053 -0.889 -0.088 -1.794 -0.088 -2.733 v -8.769 v -2.971 c 0.028 -0.003 0.055 -0.009 0.083 -0.012 c 0.57 -0.058 1.146 -0.145 1.726 -0.251 c 0.23 -0.042 0.461 -0.092 0.691 -0.142 c 0.189 -0.041 0.377 -0.071 0.566 -0.116 c 0.046 -0.011 0.085 -0.037 0.128 -0.054 c 0.032 -0.008 0.064 -0.016 0.097 -0.024 c 4.473 -1.132 8.953 -3.678 13.374 -7.655 c 0.18 0.162 0.362 0.311 0.542 0.469 c 0.177 0.154 0.355 0.313 0.533 0.463 c 0.004 0.003 0.009 0.005 0.013 0.008 c 0.224 0.189 0.448 0.375 0.672 0.557 c 0.086 0.07 0.171 0.145 0.257 0.214 c 0.108 0.087 0.217 0.163 0.325 0.248 c 0.44 0.344 0.88 0.674 1.32 0.991 c 0.125 0.09 0.25 0.187 0.375 0.274 c 0.057 0.04 0.113 0.081 0.17 0.12 c 0.551 0.382 1.103 0.74 1.656 1.079 c 0.067 0.041 0.133 0.079 0.2 0.119 c 0.149 0.09 0.299 0.174 0.448 0.261 c 0.401 0.234 0.802 0.456 1.204 0.666 c 0.125 0.066 0.251 0.132 0.376 0.195 c 0.105 0.053 0.21 0.111 0.315 0.163 c 0.617 0.303 1.234 0.576 1.851 0.824 c 0.141 0.057 0.283 0.107 0.424 0.161 c 0.251 0.096 0.502 0.199 0.753 0.286 c 0.029 0.01 0.058 0.004 0.088 0.012 c 0.208 0.071 0.415 0.144 0.623 0.208 c 0.39 0.122 0.78 0.222 1.17 0.322 c 0.282 0.072 0.564 0.147 0.846 0.208 c 0.412 0.089 0.823 0.157 1.235 0.221 c 0.165 0.026 0.33 0.067 0.495 0.089 c 0.031 0.004 0.061 -0.005 0.092 -0.003 c 0.227 0.029 0.455 0.078 0.682 0.099 V 61.205 z" style="stroke: none; stroke-width: 1; stroke-dasharray: none; stroke-linecap: butt; stroke-linejoin: miter; stroke-miterlimit: 10; fill: rgb(0,0,0); fill-rule: nonzero; opacity: 1;" transform=" matrix(1 0 0 1 0 0) " stroke-linecap="round" />
</g>
</svg>