<svg xmlns="http://www.w3.org/2000/svg" xmlns:xlink="http://www.w3.org/1999/xlink" version="1.1" width="256" height="256" viewBox="0 0 256 256" xml:space="preserve">

<defs>
</defs>
<g style="stroke: none; stroke-width: 0; stroke-dasharray: none; stroke-linecap: butt; stroke-linejoin: miter; stroke-miterlimit: 10; fill: none; fill-rule: nonzero; opacity: 1;" transform="translate(1.4065934065934016 1.4065934065934016) scale(2.81 2.81)" >
	<path d="M 41.894 67.056 c -1.145 0 -2.073 0.928 -2.073 2.073 c 0 1.145 0.928 2.073 2.073 2.073 s 2.073 -0.928 2.073 -2.073 C 43.967 67.984 43.039 67.056 41.894 67.056 z" style="stroke: none; stroke-width: 1; stroke-dasharray: none; stroke-linecap: butt; stroke-linejoin: miter; stroke-miterlimit: 10; fill: rgb(0,0,0); fill-rule: nonzero; opacity: 1;" transform=" matrix(1 0 0 1 0 0) " stroke-linecap="round" />
	<path d="M 48.106 67.056 c -1.145 0 -2.073 0.928 -2.073 2.073 c 0 1.145 0.928 2.073 2.073 2.073 s 2.073 -0.928 2.073 -2.073 C 50.179 67.984 49.251 67.056 48.106 67.056 z" style="stroke: none; stroke-width: 1; stroke-dasharray: none; stroke-linecap: butt; stroke-linejoin: miter; stroke-miterlimit: 10; fill: rgb(0,0,0); fill-rule: nonzero; opacity: 1;" transform=" matrix(1 0 0 1 0 0) " stroke-linecap="round" />
	<path d="M 45.289 59.521 c -2.682 -0.054 -5.206 0.906 -7.123 2.77 c -1.917 1.863 -2.974 4.361 -2.974 7.034 c 0 2.819 1.195 5.463 3.295 7.327 v 3.038 c 0 1.815 1.478 3.293 3.293 3.293 h 6.438 c 1.816 0 3.294 -1.478 3.294 -3.293 v -3.038 c 2.218 -1.966 3.41 -4.761 3.286 -7.745 C 54.588 63.877 50.322 59.667 45.289 59.521 z M 49.886 75.409 c -0.235 0.189 -0.373 0.477 -0.373 0.779 v 3.502 c 0 0.713 -0.58 1.293 -1.294 1.293 H 46 v -2.729 c 0 -0.553 -0.448 -1 -1 -1 s -1 0.447 -1 1 v 2.729 h -2.219 c -0.713 0 -1.293 -0.58 -1.293 -1.293 v -3.502 c 0 -0.303 -0.137 -0.59 -0.374 -0.779 c -1.857 -1.493 -2.922 -3.711 -2.922 -6.084 c 0 -2.128 0.841 -4.116 2.368 -5.6 c 1.47 -1.429 3.394 -2.208 5.438 -2.208 c 0.078 0 0.155 0.001 0.233 0.004 c 4.006 0.115 7.401 3.466 7.569 7.47 C 52.905 71.496 51.843 73.836 49.886 75.409 z" style="stroke: none; stroke-width: 1; stroke-dasharray: none; stroke-linecap: butt; stroke-linejoin: miter; stroke-miterlimit: 10; fill: rgb(0,0,0); fill-rule: nonzero; opacity: 1;" transform=" matrix(1 0 0 1 0 0) " stroke-linecap="round" />
	<path d="M 45 72.75 c -0.552 0 -1 0.447 -1 1 v 0.801 c 0 0.553 0.448 1 1 1 s 1 -0.447 1 -1 V 73.75 C 46 73.197 45.552 72.75 45 72.75 z" style="stroke: none; stroke-width: 1; stroke-dasharray: none; stroke-linecap: butt; stroke-linejoin: miter; stroke-miterlimit: 10; fill: rgb(0,0,0); fill-rule: nonzero; opacity: 1;" transform=" matrix(1 0 0 1 0 0) " stroke-linecap="round" />
	<path d="M 58.543 40.319 c 2.528 -2.935 5.767 -5.397 9.579 -7.179 c 0.342 -0.16 0.565 -0.5 0.576 -0.877 l 0.004 -0.141 c 0.008 -0.271 0.016 -0.541 0.016 -0.813 C 68.718 16.529 58.574 0 45 0 C 31.425 0 21.282 16.529 21.282 31.308 c 0 0.128 0.003 0.255 0.007 0.382 l 0.001 0.048 c 0.003 0.128 0.004 0.256 0.007 0.383 l 0.004 0.141 c 0.011 0.378 0.234 0.718 0.576 0.877 c 3.812 1.782 7.051 4.244 9.579 7.179 C 18.609 45.552 11.875 55.692 9.73 73.022 c -0.032 0.263 0.041 0.527 0.203 0.735 c 2.37 3.056 5.585 5.742 9.545 8 V 88 h -3.072 c -0.552 0 -1 0.447 -1 1 s 0.448 1 1 1 h 4.072 h 49.045 h 4.072 c 0.553 0 1 -0.447 1 -1 s -0.447 -1 -1 -1 h -3.072 v -6.242 c 3.96 -2.258 7.175 -4.944 9.545 -8 c 0.162 -0.208 0.234 -0.473 0.202 -0.735 C 78.126 55.692 71.391 45.552 58.543 40.319 z M 46.135 2.044 c 0.127 0.01 0.252 0.029 0.378 0.042 c 0.247 0.025 0.494 0.049 0.738 0.086 c 0.15 0.023 0.297 0.056 0.445 0.083 c 0.217 0.04 0.436 0.077 0.651 0.126 c 0.157 0.036 0.311 0.081 0.466 0.122 c 0.204 0.053 0.409 0.104 0.61 0.166 c 0.158 0.048 0.313 0.106 0.47 0.159 c 0.195 0.066 0.391 0.131 0.583 0.205 c 0.158 0.061 0.313 0.129 0.47 0.195 c 0.188 0.079 0.376 0.156 0.562 0.242 c 0.156 0.072 0.309 0.151 0.463 0.228 c 0.182 0.091 0.364 0.181 0.543 0.278 c 0.154 0.084 0.306 0.174 0.459 0.262 c 0.175 0.101 0.349 0.203 0.522 0.31 c 0.151 0.094 0.3 0.194 0.45 0.293 c 0.17 0.112 0.339 0.225 0.506 0.344 c 0.147 0.104 0.292 0.212 0.436 0.321 c 0.165 0.123 0.329 0.247 0.491 0.376 c 0.143 0.114 0.285 0.232 0.426 0.35 c 0.159 0.133 0.317 0.267 0.473 0.405 c 0.139 0.123 0.277 0.25 0.414 0.377 c 0.153 0.142 0.305 0.286 0.455 0.433 c 0.134 0.131 0.267 0.265 0.399 0.4 c 0.149 0.152 0.296 0.306 0.442 0.463 c 0.129 0.139 0.256 0.279 0.383 0.421 c 0.143 0.161 0.285 0.324 0.425 0.489 c 0.123 0.146 0.246 0.293 0.367 0.442 c 0.138 0.17 0.274 0.343 0.409 0.517 c 0.118 0.152 0.235 0.305 0.351 0.46 c 0.132 0.178 0.262 0.359 0.391 0.541 c 0.112 0.158 0.224 0.316 0.333 0.477 c 0.127 0.186 0.251 0.375 0.374 0.565 c 0.106 0.163 0.212 0.326 0.316 0.492 c 0.121 0.194 0.239 0.391 0.357 0.588 c 0.099 0.167 0.199 0.333 0.296 0.503 c 0.116 0.202 0.227 0.407 0.339 0.612 c 0.093 0.17 0.187 0.34 0.277 0.512 c 0.11 0.21 0.216 0.424 0.322 0.637 c 0.085 0.172 0.172 0.342 0.255 0.515 c 0.105 0.22 0.205 0.443 0.306 0.666 c 0.078 0.172 0.157 0.342 0.232 0.515 c 0.1 0.23 0.194 0.462 0.289 0.695 c 0.069 0.17 0.141 0.338 0.208 0.509 c 0.096 0.245 0.186 0.492 0.276 0.739 c 0.059 0.162 0.122 0.323 0.179 0.486 c 0.093 0.264 0.179 0.532 0.266 0.798 c 0.048 0.149 0.1 0.296 0.147 0.445 c 0.094 0.301 0.181 0.605 0.267 0.908 c 0.033 0.117 0.07 0.234 0.102 0.351 c 0.232 0.845 0.433 1.698 0.603 2.555 c 0.024 0.119 0.042 0.238 0.064 0.357 c 0.058 0.309 0.116 0.618 0.166 0.928 c 0.025 0.158 0.045 0.316 0.068 0.474 c 0.04 0.27 0.08 0.54 0.113 0.81 c 0.022 0.177 0.037 0.353 0.056 0.53 c 0.027 0.253 0.055 0.506 0.077 0.759 c 0.015 0.183 0.025 0.365 0.037 0.547 c 0.014 0.202 0.027 0.403 0.037 0.604 c -2.37 -1.696 -4.941 -3.096 -7.648 -4.184 c -0.015 -0.007 -0.026 -0.02 -0.042 -0.027 c -0.356 -0.143 -0.717 -0.271 -1.077 -0.402 c -0.045 -0.017 -0.09 -0.034 -0.136 -0.051 c -0.412 -0.149 -0.826 -0.288 -1.242 -0.422 c -0.058 -0.018 -0.115 -0.037 -0.173 -0.055 c -1.777 -0.562 -3.59 -0.991 -5.433 -1.281 c -0.047 -0.007 -0.094 -0.016 -0.141 -0.023 c -0.363 -0.056 -0.728 -0.104 -1.093 -0.149 c -0.194 -0.024 -0.388 -0.048 -0.583 -0.069 c -0.301 -0.033 -0.603 -0.063 -0.906 -0.088 c -0.294 -0.025 -0.588 -0.044 -0.883 -0.062 c -0.23 -0.014 -0.458 -0.03 -0.689 -0.04 c -0.542 -0.023 -1.086 -0.038 -1.631 -0.038 s -1.088 0.015 -1.631 0.038 c -0.23 0.01 -0.46 0.026 -0.689 0.04 c -0.295 0.018 -0.589 0.037 -0.883 0.062 c -0.303 0.025 -0.605 0.055 -0.907 0.088 c -0.194 0.021 -0.388 0.045 -0.581 0.069 c -0.366 0.045 -0.731 0.093 -1.095 0.149 c -0.045 0.007 -0.09 0.015 -0.135 0.023 c -1.846 0.29 -3.661 0.719 -5.439 1.282 c -0.057 0.018 -0.113 0.036 -0.17 0.054 c -0.416 0.134 -0.83 0.273 -1.242 0.422 c -0.047 0.017 -0.094 0.035 -0.141 0.053 c -0.358 0.131 -0.718 0.258 -1.073 0.401 c -0.016 0.006 -0.026 0.019 -0.041 0.026 c -2.707 1.087 -5.279 2.488 -7.649 4.184 c 0.01 -0.2 0.023 -0.4 0.037 -0.6 c 0.012 -0.184 0.022 -0.369 0.038 -0.553 c 0.021 -0.249 0.049 -0.497 0.075 -0.746 c 0.019 -0.181 0.035 -0.362 0.058 -0.543 c 0.032 -0.257 0.071 -0.514 0.108 -0.771 c 0.025 -0.172 0.047 -0.344 0.074 -0.516 c 0.045 -0.281 0.098 -0.562 0.15 -0.842 c 0.027 -0.147 0.051 -0.295 0.08 -0.442 c 0.072 -0.364 0.152 -0.726 0.236 -1.089 c 0.016 -0.069 0.029 -0.138 0.045 -0.206 c 0.099 -0.418 0.206 -0.835 0.319 -1.25 c 0.043 -0.156 0.091 -0.31 0.136 -0.465 c 0.076 -0.264 0.15 -0.528 0.232 -0.79 c 0.057 -0.183 0.12 -0.363 0.18 -0.545 c 0.077 -0.233 0.151 -0.466 0.232 -0.697 c 0.066 -0.188 0.138 -0.373 0.207 -0.56 c 0.082 -0.222 0.163 -0.445 0.249 -0.666 c 0.074 -0.189 0.153 -0.374 0.23 -0.561 c 0.088 -0.215 0.175 -0.43 0.267 -0.642 c 0.082 -0.189 0.168 -0.375 0.253 -0.562 c 0.094 -0.206 0.186 -0.414 0.284 -0.617 c 0.089 -0.187 0.182 -0.371 0.274 -0.555 c 0.1 -0.2 0.199 -0.401 0.302 -0.599 c 0.096 -0.184 0.196 -0.365 0.295 -0.546 c 0.106 -0.193 0.211 -0.387 0.32 -0.577 c 0.103 -0.18 0.209 -0.357 0.315 -0.534 c 0.112 -0.187 0.223 -0.374 0.338 -0.557 c 0.109 -0.175 0.222 -0.347 0.334 -0.52 c 0.117 -0.18 0.235 -0.36 0.355 -0.537 c 0.115 -0.169 0.233 -0.335 0.351 -0.501 c 0.123 -0.174 0.247 -0.346 0.374 -0.516 c 0.121 -0.163 0.244 -0.323 0.367 -0.482 c 0.13 -0.167 0.26 -0.333 0.392 -0.496 c 0.126 -0.155 0.254 -0.308 0.382 -0.46 c 0.135 -0.159 0.271 -0.316 0.409 -0.471 c 0.132 -0.148 0.265 -0.294 0.399 -0.439 c 0.14 -0.151 0.282 -0.299 0.425 -0.446 c 0.137 -0.14 0.274 -0.279 0.414 -0.414 c 0.146 -0.142 0.293 -0.281 0.441 -0.419 c 0.142 -0.132 0.284 -0.262 0.429 -0.39 c 0.151 -0.134 0.305 -0.264 0.458 -0.393 c 0.145 -0.122 0.291 -0.243 0.439 -0.36 c 0.158 -0.126 0.318 -0.247 0.479 -0.367 c 0.148 -0.111 0.297 -0.222 0.448 -0.329 c 0.164 -0.116 0.33 -0.226 0.496 -0.337 c 0.152 -0.101 0.305 -0.203 0.459 -0.299 c 0.169 -0.106 0.341 -0.205 0.513 -0.305 c 0.155 -0.09 0.31 -0.182 0.467 -0.267 c 0.177 -0.096 0.356 -0.184 0.535 -0.274 c 0.156 -0.078 0.312 -0.158 0.47 -0.231 c 0.183 -0.085 0.37 -0.161 0.555 -0.239 c 0.158 -0.066 0.315 -0.136 0.475 -0.197 c 0.191 -0.073 0.385 -0.137 0.578 -0.203 c 0.158 -0.054 0.315 -0.112 0.474 -0.16 c 0.2 -0.061 0.404 -0.112 0.606 -0.165 c 0.157 -0.041 0.312 -0.087 0.47 -0.123 c 0.214 -0.049 0.431 -0.086 0.647 -0.126 c 0.15 -0.028 0.298 -0.061 0.449 -0.084 c 0.243 -0.037 0.49 -0.061 0.736 -0.086 c 0.127 -0.013 0.252 -0.033 0.38 -0.043 C 44.24 2.015 44.619 2 45 2 S 45.76 2.015 46.135 2.044 z M 33.208 26.867 c 0.024 -0.008 0.047 -0.016 0.071 -0.025 c 2.789 -0.97 5.711 -1.595 8.692 -1.849 c 0.077 -0.006 0.155 -0.009 0.232 -0.015 c 0.42 -0.033 0.841 -0.062 1.263 -0.08 c 0.509 -0.021 1.021 -0.033 1.533 -0.033 c 0.513 0 1.024 0.012 1.534 0.033 c 0.42 0.018 0.839 0.047 1.258 0.08 c 0.079 0.006 0.159 0.009 0.238 0.016 c 2.981 0.253 5.903 0.878 8.692 1.848 c 0.024 0.008 0.048 0.016 0.071 0.025 c 0.197 0.069 0.391 0.146 0.587 0.219 l -1.525 4.963 c -1.27 4.132 -4.055 7.556 -7.842 9.639 l -0.657 0.361 c -1.475 0.811 -3.237 0.811 -4.711 0 l -0.656 -0.361 c -3.788 -2.083 -6.573 -5.507 -7.843 -9.639 l -1.524 -4.963 C 32.817 27.014 33.011 26.936 33.208 26.867 z M 23.822 31.879 c 2.145 -1.616 4.475 -2.971 6.936 -4.045 l 1.475 4.802 c 1.423 4.632 4.545 8.469 8.791 10.804 l 0.656 0.361 c 1.04 0.571 2.18 0.857 3.32 0.857 c 1.141 0 2.28 -0.286 3.319 -0.857 l 0.656 -0.361 c 4.246 -2.335 7.368 -6.172 8.791 -10.805 l 1.475 -4.802 c 2.461 1.075 4.791 2.43 6.936 4.045 c -7.107 3.651 -12.224 9.573 -14.444 16.543 c -0.018 0.057 -0.033 0.114 -0.051 0.17 c -0.15 0.481 -0.288 0.966 -0.41 1.457 c -0.054 0.216 -0.1 0.432 -0.149 0.649 c -0.073 0.332 -0.144 0.665 -0.205 1 c -0.056 0.307 -0.104 0.615 -0.149 0.924 c -0.02 0.137 -0.048 0.271 -0.066 0.409 H 39.294 c -0.017 -0.135 -0.045 -0.268 -0.065 -0.403 c -0.045 -0.313 -0.094 -0.624 -0.15 -0.935 c -0.06 -0.33 -0.129 -0.658 -0.201 -0.984 c -0.05 -0.222 -0.097 -0.444 -0.152 -0.665 c -0.12 -0.484 -0.256 -0.961 -0.404 -1.436 c -0.02 -0.063 -0.037 -0.127 -0.057 -0.19 C 36.045 41.45 30.929 35.53 23.822 31.879 z M 11.768 72.854 c 2.128 -16.502 8.614 -26.078 20.956 -30.91 c 1.49 2.031 2.647 4.238 3.452 6.546 c 0.033 0.095 0.067 0.189 0.099 0.284 c 0.11 0.328 0.207 0.659 0.303 0.99 c 0.062 0.22 0.124 0.439 0.18 0.661 c 0.062 0.242 0.119 0.485 0.174 0.729 c 0.072 0.329 0.139 0.659 0.197 0.991 c 0.029 0.164 0.059 0.328 0.085 0.493 c 0.02 0.131 0.032 0.263 0.05 0.394 H 27.065 c -4.184 0 -7.588 3.403 -7.588 7.587 v 18.825 C 16.362 77.537 13.724 75.284 11.768 72.854 z M 21.478 88 v -6.818 V 60.619 c 0 -3.081 2.507 -5.587 5.588 -5.587 h 11.333 h 0.005 h 13.193 h 0.005 h 11.333 c 3.081 0 5.588 2.506 5.588 5.587 v 20.563 V 88 H 21.478 z M 70.522 79.444 V 60.619 c 0 -4.184 -3.404 -7.587 -7.588 -7.587 H 52.737 c 0.018 -0.131 0.03 -0.264 0.05 -0.394 c 0.026 -0.166 0.056 -0.331 0.086 -0.496 c 0.058 -0.329 0.124 -0.657 0.195 -0.982 c 0.056 -0.249 0.114 -0.497 0.177 -0.744 c 0.055 -0.215 0.114 -0.428 0.175 -0.641 c 0.097 -0.338 0.197 -0.676 0.309 -1.01 c 0.029 -0.087 0.06 -0.172 0.09 -0.258 c 0.806 -2.314 1.965 -4.526 3.458 -6.562 c 12.343 4.832 18.828 14.408 20.956 30.91 C 76.276 75.284 73.638 77.537 70.522 79.444 z" style="stroke: none; stroke-width: 1; stroke-dasharray: none; stroke-linecap: butt; stroke-linejoin: miter; stroke-miterlimit: 10; fill: rgb(0,0,0); fill-rule: nonzero; opacity: 1;" transform=" matrix(1 0 0 1 0 0) " stroke-linecap="round" />
</g>
</svg>