<?xml version="1.0" encoding="utf-8"?>
<!-- Generator: Adobe Illustrator 26.0.3, SVG Export Plug-In . SVG Version: 6.00 Build 0)  -->
<svg version="1.0" id="katman_1" xmlns="http://www.w3.org/2000/svg" xmlns:xlink="http://www.w3.org/1999/xlink" x="0px" y="0px"
	 viewBox="0 0 600 450" style="enable-background:new 0 0 600 450;" xml:space="preserve">
<style type="text/css">
	.st0{fill:#010202;}
</style>
<path class="st0" d="M299.4,75c-82.5,0-149.4,67-149.4,149.5c0,61.5,37.7,116.7,94.9,139.1c-2-14.3-1.8-28.7,0.5-42.9
	c2.7-11.7,17.5-74.3,17.5-74.3c-3-7-4.5-14.5-4.4-22.1c0-20.8,12-36.3,27.1-36.3c10.4-0.2,18.9,8.1,19.1,18.5c0,0.9,0,1.7-0.1,2.6
	c0,12.8-8.1,32-12.4,49.8c-3,11.6,4.1,23.4,15.7,26.4c2.1,0.5,4.3,0.8,6.4,0.6c26.6,0,47-28,47-68.4c1.1-32.5-24.4-59.8-57-60.9
	c-1.8-0.1-3.7,0-5.5,0.1c-35.7-1.6-65.9,26.1-67.5,61.7c0,1-0.1,2-0.1,3.1c0,12.2,3.9,24.2,11.1,34.1c1.1,1.1,1.4,2.8,1,4.3
	c-1.1,4.7-3.7,14.9-4.2,17c-0.6,2.7-2.2,3.3-5,2c-18.7-8.7-30.4-35.9-30.4-57.9c0-47.1,34.2-90.4,98.7-90.4
	c51.8,0,92.1,36.9,92.1,86.3c0,51.5-32.5,93-77.5,93c-13.6,0.5-26.5-6-34.2-17.2l-9.4,35.5c-4.4,13.8-10.7,27-18.6,39.2
	c78.9,24.4,162.6-19.9,187-98.8c24.4-78.9-19.9-162.6-98.8-187C328.9,77.3,314.2,75,299.4,75L299.4,75z"/>
</svg>
