<svg xmlns:xlink="http://www.w3.org/1999/xlink" xmlns="http://www.w3.org/2000/svg" width="381" height="240" viewBox="0 0 381 240" fill="none">
  <path d="M348.334 33.2337H237.5V1.56738H348.334V33.2337ZM375.661 191.567C368.664 212.104 343.536 239.067 294.896 239.067C246.224 239.067 206.799 211.691 206.799 149.214C206.799 87.3049 243.611 55.4799 293.344 55.4799C342.142 55.4799 371.941 83.6949 378.449 125.559C379.684 133.57 380.174 144.369 379.953 159.441H252.859C254.916 210.282 308.006 211.881 325.501 191.567H375.661ZM253.966 128.234H332.579C330.916 103.74 314.592 93.0999 293.36 93.0999C270.149 93.0999 257.307 105.26 253.966 128.234ZM102.379 238.877H0V1.89988H110.089C196.792 3.18238 198.439 88.0962 153.156 111.245C207.955 131.195 209.791 238.877 102.379 238.877ZM47.5 96.5674H104.246C143.956 96.5674 150.259 49.0674 99.3063 49.0674H47.5V96.5674ZM101.191 144.067H47.5V191.821H100.399C148.77 191.821 145.809 144.067 101.191 144.067Z" fill="#A8B0AF"/>
</svg>