<svg xmlns="http://www.w3.org/2000/svg" xmlns:xlink="http://www.w3.org/1999/xlink" version="1.1" width="256" height="256" viewBox="0 0 256 256" xml:space="preserve">

<defs>
</defs>
<g style="stroke: none; stroke-width: 0; stroke-dasharray: none; stroke-linecap: butt; stroke-linejoin: miter; stroke-miterlimit: 10; fill: none; fill-rule: nonzero; opacity: 1;" transform="translate(1.4065934065934016 1.4065934065934016) scale(2.81 2.81)" >
	<path d="M 45 39.743 c 4.071 0 7.384 -3.313 7.384 -7.384 v -4.708 c 0 -0.552 -0.447 -1 -1 -1 h -1.45 v -4.997 c 0 -2.72 -2.213 -4.934 -4.934 -4.934 c -2.72 0 -4.934 2.213 -4.934 4.934 v 4.997 h -1.451 c -0.552 0 -1 0.448 -1 1 v 4.708 C 37.616 36.43 40.928 39.743 45 39.743 z M 42.066 21.654 c 0 -1.618 1.316 -2.934 2.934 -2.934 c 1.617 0 2.934 1.316 2.934 2.934 v 4.997 h -5.867 V 21.654 z M 39.616 28.651 h 1.451 h 7.867 h 1.45 v 3.708 c 0 2.969 -2.415 5.384 -5.384 5.384 s -5.384 -2.415 -5.384 -5.384 V 28.651 z" style="stroke: none; stroke-width: 1; stroke-dasharray: none; stroke-linecap: butt; stroke-linejoin: miter; stroke-miterlimit: 10; fill: rgb(0,0,0); fill-rule: nonzero; opacity: 1;" transform=" matrix(1 0 0 1 0 0) " stroke-linecap="round" />
	<path d="M 45 33.9 c 0.06 0 0.13 -0.01 0.2 -0.02 c 0.06 -0.01 0.12 -0.03 0.18 -0.06 c 0.06 -0.02 0.12 -0.05 0.18 -0.09 c 0.05 -0.03 0.1 -0.08 0.15 -0.12 c 0.09 -0.1 0.16 -0.2 0.21 -0.33 C 45.98 33.16 46 33.03 46 32.9 c 0 -0.26 -0.11 -0.52 -0.29 -0.71 c -0.28 -0.27 -0.72 -0.37 -1.09 -0.21 c -0.13 0.05 -0.24 0.12 -0.33 0.21 c -0.04 0.05 -0.09 0.1 -0.12 0.15 c -0.04 0.06 -0.07 0.12 -0.09 0.18 c -0.03 0.06 -0.05 0.12 -0.06 0.18 C 44.01 32.77 44 32.84 44 32.9 c 0 0.26 0.11 0.52 0.29 0.71 C 44.48 33.79 44.74 33.9 45 33.9 z" style="stroke: none; stroke-width: 1; stroke-dasharray: none; stroke-linecap: butt; stroke-linejoin: miter; stroke-miterlimit: 10; fill: rgb(0,0,0); fill-rule: nonzero; opacity: 1;" transform=" matrix(1 0 0 1 0 0) " stroke-linecap="round" />
	<path d="M 90 29.963 c 0 -1.575 -0.666 -2.995 -1.727 -4.003 c -0.004 -0.004 -0.005 -0.009 -0.009 -0.013 c -0.005 -0.005 -0.012 -0.006 -0.017 -0.01 c -0.989 -0.929 -2.316 -1.502 -3.776 -1.502 H 63.652 V 12.351 c 0 -0.533 -0.418 -0.973 -0.951 -0.999 c -5.614 -0.275 -11.34 -3.104 -17.019 -8.406 c -0.385 -0.358 -0.98 -0.358 -1.365 0 c -5.679 5.303 -11.405 8.131 -17.019 8.406 c -0.533 0.026 -0.951 0.466 -0.951 0.999 v 12.084 H 5.528 c -1.46 0 -2.785 0.573 -3.775 1.5 c -0.006 0.005 -0.013 0.007 -0.019 0.012 c -0.005 0.004 -0.006 0.01 -0.01 0.015 C 0.665 26.97 0 28.389 0 29.963 v 51.833 c 0 1.47 0.581 2.805 1.52 3.796 c 0.003 0.004 0.003 0.008 0.006 0.012 c 0.004 0.005 0.01 0.006 0.014 0.01 c 1.007 1.052 2.421 1.71 3.988 1.71 h 78.943 c 1.564 0 2.976 -0.656 3.983 -1.705 c 0.005 -0.005 0.011 -0.007 0.016 -0.012 c 0.004 -0.004 0.004 -0.01 0.008 -0.014 C 89.419 84.602 90 83.267 90 81.796 V 29.963 z M 58.432 58.712 l 29.074 -30.518 C 87.812 28.716 88 29.316 88 29.963 v 51.833 c 0 0.622 -0.176 1.198 -0.459 1.706 L 58.432 58.712 z M 28.348 13.281 C 33.905 12.752 39.498 9.982 45 5.033 c 5.501 4.95 11.095 7.72 16.652 8.248 v 11.731 c 0 0.141 -0.005 0.275 -0.007 0.414 c 0 0 0 0.001 0 0.001 c -0.009 1.012 -0.049 1.985 -0.119 2.921 c 0 0.001 0 0.002 0 0.003 c -0.035 0.466 -0.077 0.922 -0.127 1.369 c -0.001 0.007 -0.002 0.014 -0.003 0.021 c -0.049 0.441 -0.105 0.873 -0.167 1.297 c -0.002 0.013 -0.004 0.026 -0.006 0.038 c -0.062 0.416 -0.13 0.825 -0.205 1.225 c -0.004 0.021 -0.009 0.042 -0.013 0.064 c -0.074 0.391 -0.153 0.775 -0.239 1.151 c -0.006 0.027 -0.013 0.053 -0.019 0.08 c -0.085 0.368 -0.175 0.73 -0.27 1.083 c -0.009 0.035 -0.02 0.068 -0.029 0.103 c -0.094 0.343 -0.193 0.681 -0.297 1.011 c -0.014 0.044 -0.029 0.086 -0.043 0.13 c -0.102 0.318 -0.208 0.632 -0.319 0.938 c -0.019 0.051 -0.038 0.1 -0.057 0.151 c -0.109 0.296 -0.221 0.587 -0.339 0.872 c -0.024 0.058 -0.05 0.115 -0.074 0.173 c -0.115 0.273 -0.232 0.542 -0.354 0.805 c -0.031 0.067 -0.064 0.131 -0.095 0.197 c -0.119 0.25 -0.239 0.498 -0.364 0.739 c -0.038 0.074 -0.079 0.145 -0.117 0.218 c -0.121 0.228 -0.244 0.455 -0.371 0.675 c -0.048 0.084 -0.099 0.164 -0.148 0.247 c -0.121 0.205 -0.243 0.409 -0.369 0.608 c -0.058 0.091 -0.118 0.179 -0.177 0.269 c -0.121 0.184 -0.242 0.369 -0.367 0.547 c -0.068 0.098 -0.139 0.192 -0.209 0.288 c -0.119 0.165 -0.238 0.331 -0.361 0.491 c -0.079 0.104 -0.161 0.203 -0.242 0.305 c -0.116 0.147 -0.232 0.295 -0.351 0.438 c -0.092 0.11 -0.186 0.216 -0.279 0.323 c -0.112 0.129 -0.223 0.26 -0.337 0.386 c -0.104 0.115 -0.211 0.226 -0.317 0.338 c -0.107 0.113 -0.212 0.228 -0.32 0.338 c -0.118 0.12 -0.238 0.235 -0.357 0.352 c -0.1 0.097 -0.198 0.197 -0.299 0.292 c -0.132 0.125 -0.266 0.245 -0.4 0.366 c -0.092 0.083 -0.182 0.168 -0.275 0.249 c -0.146 0.128 -0.295 0.252 -0.443 0.376 c -0.083 0.07 -0.165 0.141 -0.248 0.209 c -0.16 0.131 -0.322 0.257 -0.484 0.383 c -0.074 0.058 -0.148 0.118 -0.223 0.175 c -0.174 0.133 -0.351 0.262 -0.528 0.39 c -0.064 0.047 -0.128 0.095 -0.193 0.142 c -0.188 0.134 -0.378 0.265 -0.569 0.394 c -0.055 0.037 -0.109 0.076 -0.165 0.113 c -0.199 0.133 -0.399 0.262 -0.6 0.39 c -0.049 0.031 -0.097 0.064 -0.145 0.094 c -0.211 0.133 -0.423 0.262 -0.636 0.39 c -0.04 0.024 -0.079 0.049 -0.118 0.072 c -0.223 0.133 -0.447 0.262 -0.672 0.389 c -0.03 0.017 -0.06 0.035 -0.09 0.052 c -0.233 0.131 -0.467 0.259 -0.702 0.385 c -0.022 0.012 -0.044 0.025 -0.067 0.037 c -0.234 0.125 -0.469 0.247 -0.704 0.368 c -0.023 0.012 -0.047 0.025 -0.07 0.037 c -0.245 0.125 -0.49 0.246 -0.735 0.366 c -0.014 0.007 -0.027 0.014 -0.041 0.021 c -0.259 0.126 -0.518 0.25 -0.778 0.372 c -0.259 -0.121 -0.519 -0.245 -0.778 -0.372 c -0.014 -0.007 -0.027 -0.014 -0.041 -0.021 c -0.245 -0.12 -0.49 -0.242 -0.735 -0.366 c -0.023 -0.012 -0.047 -0.025 -0.07 -0.037 c -0.235 -0.12 -0.47 -0.242 -0.704 -0.368 c -0.022 -0.012 -0.044 -0.025 -0.067 -0.037 c -0.235 -0.126 -0.469 -0.254 -0.702 -0.385 c -0.03 -0.017 -0.06 -0.035 -0.09 -0.052 c -0.225 -0.127 -0.449 -0.256 -0.672 -0.389 c -0.04 -0.024 -0.079 -0.049 -0.118 -0.072 c -0.213 -0.128 -0.425 -0.257 -0.636 -0.39 c -0.049 -0.031 -0.097 -0.063 -0.145 -0.094 c -0.201 -0.128 -0.401 -0.257 -0.6 -0.39 c -0.057 -0.038 -0.112 -0.078 -0.168 -0.116 c -0.189 -0.128 -0.378 -0.257 -0.564 -0.391 c -0.069 -0.049 -0.137 -0.101 -0.205 -0.151 c -0.173 -0.125 -0.345 -0.251 -0.515 -0.381 c -0.08 -0.061 -0.158 -0.125 -0.238 -0.187 c -0.157 -0.122 -0.314 -0.244 -0.468 -0.371 c -0.09 -0.074 -0.179 -0.151 -0.269 -0.227 c -0.141 -0.119 -0.283 -0.236 -0.422 -0.359 c -0.1 -0.088 -0.198 -0.18 -0.297 -0.269 c -0.126 -0.114 -0.253 -0.227 -0.377 -0.344 c -0.109 -0.103 -0.216 -0.21 -0.323 -0.316 c -0.111 -0.109 -0.223 -0.217 -0.333 -0.328 c -0.115 -0.118 -0.228 -0.24 -0.342 -0.361 c -0.099 -0.105 -0.198 -0.208 -0.295 -0.315 c -0.122 -0.135 -0.24 -0.274 -0.36 -0.412 c -0.085 -0.099 -0.172 -0.195 -0.255 -0.296 c -0.127 -0.152 -0.25 -0.31 -0.374 -0.467 c -0.073 -0.092 -0.147 -0.182 -0.219 -0.276 c -0.13 -0.171 -0.257 -0.347 -0.384 -0.523 c -0.062 -0.086 -0.125 -0.169 -0.186 -0.256 c -0.132 -0.189 -0.26 -0.384 -0.388 -0.58 c -0.052 -0.079 -0.105 -0.156 -0.156 -0.236 c -0.134 -0.21 -0.263 -0.427 -0.392 -0.645 c -0.041 -0.07 -0.084 -0.138 -0.125 -0.208 c -0.133 -0.231 -0.262 -0.469 -0.389 -0.709 c -0.033 -0.062 -0.067 -0.123 -0.1 -0.185 c -0.13 -0.251 -0.256 -0.509 -0.379 -0.77 c -0.027 -0.056 -0.054 -0.11 -0.08 -0.166 c -0.127 -0.273 -0.248 -0.552 -0.367 -0.835 c -0.02 -0.048 -0.041 -0.094 -0.061 -0.143 c -0.122 -0.295 -0.238 -0.597 -0.351 -0.904 c -0.015 -0.04 -0.03 -0.078 -0.045 -0.118 c -0.115 -0.317 -0.224 -0.641 -0.33 -0.97 c -0.011 -0.033 -0.022 -0.065 -0.032 -0.098 c -0.108 -0.341 -0.21 -0.69 -0.307 -1.045 c -0.006 -0.023 -0.013 -0.045 -0.019 -0.069 c -0.099 -0.365 -0.192 -0.738 -0.279 -1.118 c -0.003 -0.015 -0.007 -0.03 -0.011 -0.045 c -0.088 -0.387 -0.17 -0.782 -0.246 -1.185 c -0.002 -0.01 -0.004 -0.02 -0.006 -0.029 c -0.076 -0.409 -0.146 -0.826 -0.21 -1.252 c -0.001 -0.005 -0.002 -0.009 -0.002 -0.014 c -0.255 -1.726 -0.4 -3.594 -0.417 -5.617 c 0 0 0 -0.001 0 -0.001 c -0.001 -0.139 -0.007 -0.273 -0.007 -0.413 V 13.281 z M 26.371 26.435 c 0.09 3.154 0.479 5.94 1.108 8.415 c 0.001 0.005 0.003 0.011 0.004 0.016 c 0.101 0.396 0.208 0.784 0.321 1.165 c 0.006 0.021 0.012 0.042 0.018 0.063 c 0.109 0.365 0.224 0.722 0.345 1.072 c 0.012 0.035 0.023 0.071 0.036 0.105 c 0.117 0.336 0.238 0.665 0.364 0.988 c 0.018 0.046 0.036 0.094 0.054 0.14 c 0.123 0.309 0.25 0.612 0.381 0.91 c 0.025 0.057 0.05 0.114 0.075 0.171 c 0.127 0.284 0.258 0.561 0.393 0.835 c 0.033 0.067 0.066 0.134 0.099 0.2 c 0.131 0.261 0.266 0.517 0.404 0.769 c 0.04 0.072 0.079 0.145 0.119 0.216 c 0.135 0.241 0.273 0.477 0.414 0.71 c 0.048 0.079 0.095 0.157 0.144 0.234 c 0.137 0.221 0.277 0.438 0.419 0.652 c 0.056 0.084 0.112 0.167 0.169 0.25 c 0.138 0.202 0.279 0.401 0.422 0.596 c 0.065 0.089 0.131 0.178 0.198 0.266 c 0.138 0.184 0.279 0.366 0.421 0.544 c 0.074 0.093 0.15 0.185 0.225 0.277 c 0.138 0.168 0.277 0.334 0.418 0.496 c 0.084 0.097 0.17 0.193 0.255 0.288 c 0.136 0.152 0.273 0.303 0.412 0.451 c 0.094 0.1 0.188 0.197 0.283 0.295 c 0.135 0.139 0.271 0.277 0.408 0.412 c 0.102 0.101 0.206 0.199 0.309 0.297 c 0.133 0.127 0.267 0.253 0.402 0.376 c 0.113 0.103 0.227 0.203 0.34 0.303 c 0.129 0.114 0.258 0.227 0.389 0.338 c 0.123 0.104 0.247 0.206 0.372 0.308 c 0.125 0.103 0.251 0.206 0.378 0.306 c 0.132 0.104 0.266 0.206 0.4 0.308 c 0.121 0.092 0.242 0.186 0.365 0.276 c 0.143 0.105 0.287 0.207 0.43 0.31 c 0.116 0.083 0.232 0.167 0.349 0.248 c 0.153 0.106 0.308 0.209 0.462 0.312 c 0.11 0.073 0.219 0.147 0.329 0.219 c 0.164 0.107 0.329 0.21 0.494 0.313 c 0.104 0.065 0.207 0.132 0.312 0.195 c 0.172 0.106 0.346 0.208 0.52 0.311 c 0.098 0.058 0.195 0.117 0.293 0.174 c 0.184 0.106 0.368 0.209 0.553 0.312 c 0.09 0.05 0.18 0.102 0.27 0.151 c 0.194 0.106 0.389 0.21 0.584 0.313 c 0.082 0.043 0.163 0.088 0.245 0.13 c 0.204 0.106 0.408 0.209 0.612 0.312 c 0.074 0.037 0.148 0.076 0.223 0.113 c 0.227 0.113 0.454 0.223 0.681 0.332 c 0.051 0.025 0.102 0.05 0.153 0.075 c 0.279 0.133 0.559 0.264 0.838 0.392 c 0.133 0.061 0.275 0.091 0.417 0.091 s 0.285 -0.03 0.417 -0.091 c 0.277 -0.127 0.554 -0.257 0.832 -0.389 c 0.096 -0.046 0.192 -0.094 0.288 -0.14 c 0.182 -0.088 0.365 -0.176 0.547 -0.267 c 0.106 -0.052 0.211 -0.107 0.316 -0.161 c 0.172 -0.087 0.344 -0.173 0.515 -0.263 c 0.116 -0.06 0.231 -0.123 0.346 -0.185 c 0.16 -0.085 0.32 -0.169 0.479 -0.257 c 0.123 -0.067 0.245 -0.137 0.367 -0.206 c 0.152 -0.085 0.303 -0.169 0.454 -0.257 c 0.125 -0.072 0.248 -0.147 0.372 -0.22 c 0.148 -0.088 0.296 -0.175 0.443 -0.265 c 0.125 -0.077 0.25 -0.156 0.375 -0.235 c 0.144 -0.09 0.287 -0.18 0.43 -0.273 c 0.129 -0.084 0.258 -0.171 0.386 -0.257 c 0.135 -0.09 0.271 -0.18 0.405 -0.273 c 0.134 -0.093 0.267 -0.188 0.4 -0.283 c 0.127 -0.091 0.254 -0.181 0.38 -0.274 c 0.137 -0.101 0.273 -0.206 0.41 -0.31 c 0.119 -0.091 0.238 -0.181 0.355 -0.274 c 0.14 -0.11 0.277 -0.223 0.415 -0.337 c 0.112 -0.092 0.224 -0.183 0.335 -0.277 c 0.141 -0.12 0.281 -0.243 0.421 -0.366 c 0.103 -0.091 0.207 -0.182 0.309 -0.275 c 0.144 -0.131 0.287 -0.266 0.429 -0.401 c 0.095 -0.09 0.19 -0.18 0.283 -0.272 c 0.145 -0.143 0.288 -0.288 0.431 -0.435 c 0.088 -0.09 0.175 -0.18 0.262 -0.272 c 0.146 -0.155 0.289 -0.312 0.432 -0.472 c 0.079 -0.089 0.159 -0.177 0.237 -0.268 c 0.146 -0.168 0.29 -0.34 0.433 -0.514 c 0.071 -0.087 0.142 -0.173 0.212 -0.261 c 0.146 -0.183 0.29 -0.369 0.432 -0.558 c 0.063 -0.084 0.126 -0.168 0.188 -0.253 c 0.145 -0.198 0.288 -0.4 0.428 -0.605 c 0.055 -0.081 0.11 -0.162 0.165 -0.244 c 0.143 -0.215 0.284 -0.434 0.422 -0.656 c 0.047 -0.076 0.095 -0.154 0.141 -0.231 c 0.142 -0.233 0.28 -0.471 0.416 -0.713 c 0.04 -0.071 0.079 -0.143 0.118 -0.214 c 0.139 -0.253 0.274 -0.51 0.406 -0.772 c 0.033 -0.065 0.065 -0.131 0.097 -0.197 c 0.135 -0.273 0.266 -0.551 0.393 -0.834 c 0.026 -0.059 0.052 -0.118 0.078 -0.177 c 0.13 -0.295 0.256 -0.596 0.378 -0.902 c 0.019 -0.049 0.038 -0.099 0.057 -0.148 c 0.125 -0.32 0.245 -0.646 0.361 -0.979 c 0.013 -0.039 0.026 -0.078 0.039 -0.117 c 0.119 -0.347 0.233 -0.699 0.341 -1.06 c 0.008 -0.026 0.015 -0.053 0.023 -0.079 c 0.112 -0.376 0.218 -0.759 0.318 -1.15 c 0.002 -0.009 0.005 -0.019 0.007 -0.028 c 0.628 -2.472 1.016 -5.255 1.106 -8.406 h 20.842 c 0.57 0 1.1 0.148 1.577 0.389 L 47.352 67.445 c -0.619 0.649 -1.454 1.007 -2.352 1.007 s -1.732 -0.357 -2.351 -1.007 L 3.952 26.824 c 0.477 -0.241 1.007 -0.389 1.577 -0.389 H 26.371 z M 2.462 83.507 C 2.177 82.998 2 82.42 2 81.796 V 29.963 c 0 -0.648 0.188 -1.247 0.494 -1.77 l 29.215 30.667 L 2.462 83.507 z M 5.528 85.324 c -0.589 0 -1.137 -0.159 -1.626 -0.416 l 29.189 -24.597 l 8.11 8.513 c 1 1.05 2.349 1.628 3.798 1.628 c 0 0 0 0 0 0 c 1.45 0 2.799 -0.578 3.799 -1.628 l 8.251 -8.661 l 29.053 24.742 c -0.49 0.258 -1.04 0.419 -1.632 0.419 H 5.528 z" style="stroke: none; stroke-width: 1; stroke-dasharray: none; stroke-linecap: butt; stroke-linejoin: miter; stroke-miterlimit: 10; fill: rgb(0,0,0); fill-rule: nonzero; opacity: 1;" transform=" matrix(1 0 0 1 0 0) " stroke-linecap="round" />
</g>
</svg>