<svg xmlns="http://www.w3.org/2000/svg" xmlns:xlink="http://www.w3.org/1999/xlink" version="1.1" width="256" height="256" viewBox="0 0 256 256" xml:space="preserve">

<defs>
</defs>
<g style="stroke: none; stroke-width: 0; stroke-dasharray: none; stroke-linecap: butt; stroke-linejoin: miter; stroke-miterlimit: 10; fill: none; fill-rule: nonzero; opacity: 1;" transform="translate(1.4065934065934016 1.4065934065934016) scale(2.81 2.81)" >
	<path d="M 65.737 11.206 c 1.016 0.431 2.19 -0.046 2.621 -1.064 c 0.43 -1.017 -0.047 -2.191 -1.064 -2.62 c -10.34 -4.369 -15.334 4.28 -17.774 9.705 l -1.673 -0.707 c -1.313 -0.555 -2.764 -0.565 -4.086 -0.029 c -1.321 0.537 -2.355 1.555 -2.91 2.869 l -2.058 4.872 c -14.559 -1.742 -28.484 6.278 -34.25 19.921 C -2.538 60.908 5.333 80.3 22.089 87.38 C 26.22 89.126 30.572 90 34.926 90 c 4.2 0 8.402 -0.813 12.411 -2.44 c 8.165 -3.314 14.55 -9.609 17.979 -17.726 c 5.643 -13.349 1.899 -28.756 -9.068 -38.024 l 2.132 -5.043 c 1.145 -2.713 -0.129 -5.851 -2.84 -6.997 l -2.317 -0.979 C 56.852 10.991 60.355 8.932 65.737 11.206 z M 54.702 24.184 c 0.135 0.332 0.132 0.696 -0.007 1.026 l -3.321 7.856 l 1.226 0.941 c 10.454 8.024 14.168 22.117 9.031 34.271 c -3.013 7.133 -8.624 12.665 -15.799 15.577 c -7.174 2.911 -15.055 2.855 -22.187 -0.157 C 8.921 77.474 2.004 60.433 8.226 45.709 c 4.605 -10.899 15.136 -17.714 26.623 -17.714 c 1.603 0 3.226 0.133 4.853 0.406 l 1.558 0.261 l 3.273 -7.747 c 0.139 -0.33 0.399 -0.586 0.73 -0.72 s 0.696 -0.132 1.026 0.007 l 7.691 3.25 C 54.311 23.593 54.567 23.852 54.702 24.184 z" style="stroke: none; stroke-width: 1; stroke-dasharray: none; stroke-linecap: butt; stroke-linejoin: miter; stroke-miterlimit: 10; fill: rgb(0,0,0); fill-rule: nonzero; opacity: 1;" transform=" matrix(1 0 0 1 0 0) " stroke-linecap="round" />
	<path d="M 82.686 18.197 c -0.26 0 -0.523 -0.051 -0.777 -0.158 l -8.13 -3.436 c -1.017 -0.43 -1.494 -1.603 -1.063 -2.621 c 0.43 -1.017 1.605 -1.493 2.62 -1.063 l 8.13 3.436 c 1.017 0.43 1.494 1.603 1.063 2.621 C 84.206 17.739 83.465 18.197 82.686 18.197 z" style="stroke: none; stroke-width: 1; stroke-dasharray: none; stroke-linecap: butt; stroke-linejoin: miter; stroke-miterlimit: 10; fill: rgb(0,0,0); fill-rule: nonzero; opacity: 1;" transform=" matrix(1 0 0 1 0 0) " stroke-linecap="round" />
	<path d="M 77.881 7.321 c -0.79 0 -1.539 -0.471 -1.854 -1.248 c -0.415 -1.023 0.078 -2.19 1.101 -2.605 l 8.179 -3.32 c 1.023 -0.416 2.19 0.078 2.605 1.1 c 0.415 1.023 -0.078 2.19 -1.101 2.605 l -8.179 3.32 C 78.386 7.273 78.131 7.321 77.881 7.321 z" style="stroke: none; stroke-width: 1; stroke-dasharray: none; stroke-linecap: butt; stroke-linejoin: miter; stroke-miterlimit: 10; fill: rgb(0,0,0); fill-rule: nonzero; opacity: 1;" transform=" matrix(1 0 0 1 0 0) " stroke-linecap="round" />
	<path d="M 74.858 30.51 c -0.79 0 -1.539 -0.471 -1.854 -1.248 l -3.32 -8.178 c -0.415 -1.023 0.078 -2.19 1.101 -2.605 c 1.023 -0.417 2.19 0.078 2.605 1.1 l 3.32 8.178 c 0.415 1.023 -0.078 2.19 -1.101 2.605 C 75.363 30.463 75.108 30.51 74.858 30.51 z" style="stroke: none; stroke-width: 1; stroke-dasharray: none; stroke-linecap: butt; stroke-linejoin: miter; stroke-miterlimit: 10; fill: rgb(0,0,0); fill-rule: nonzero; opacity: 1;" transform=" matrix(1 0 0 1 0 0) " stroke-linecap="round" />
	<path d="M 39.095 55.02 h -8.189 c -1.173 0 -2.128 -0.954 -2.128 -2.128 v -6.354 c 0 -1.173 0.955 -2.127 2.128 -2.127 h 8.189 c 1.173 0 2.128 0.955 2.128 2.127 c 0 1.104 0.896 2 2 2 s 2 -0.896 2 -2 c 0 -3.379 -2.749 -6.127 -6.128 -6.127 H 37 v -3.113 c 0 -1.104 -0.896 -2 -2 -2 s -2 0.896 -2 2 v 3.113 h -2.095 c -3.379 0 -6.128 2.749 -6.128 6.127 v 6.354 c 0 3.379 2.749 6.128 6.128 6.128 h 8.189 c 1.173 0 2.128 0.954 2.128 2.128 v 6.354 c 0 1.174 -0.955 2.128 -2.128 2.128 h -8.189 c -1.173 0 -2.128 -0.954 -2.128 -2.128 c 0 -1.104 -0.896 -2 -2 -2 s -2 0.896 -2 2 c 0 3.379 2.749 6.128 6.128 6.128 H 33 v 3.113 c 0 1.104 0.896 2 2 2 s 2 -0.896 2 -2 v -3.113 h 2.095 c 3.379 0 6.128 -2.749 6.128 -6.128 v -6.354 C 45.223 57.769 42.474 55.02 39.095 55.02 z" style="stroke: none; stroke-width: 1; stroke-dasharray: none; stroke-linecap: butt; stroke-linejoin: miter; stroke-miterlimit: 10; fill: rgb(0,0,0); fill-rule: nonzero; opacity: 1;" transform=" matrix(1 0 0 1 0 0) " stroke-linecap="round" />
</g>
</svg>