<svg xmlns="http://www.w3.org/2000/svg" xmlns:xlink="http://www.w3.org/1999/xlink" version="1.1" width="256" height="256" viewBox="0 0 256 256" xml:space="preserve">

<defs>
</defs>
<g style="stroke: none; stroke-width: 0; stroke-dasharray: none; stroke-linecap: butt; stroke-linejoin: miter; stroke-miterlimit: 10; fill: none; fill-rule: nonzero; opacity: 1;" transform="translate(1.4065934065934016 1.4065934065934016) scale(2.81 2.81)" >
	<path d="M 86.087 37.651 c 0 -1.37 -0.533 -2.657 -1.501 -3.625 c -0.023 -0.023 -0.053 -0.031 -0.078 -0.052 c -0.017 -0.018 -0.025 -0.042 -0.043 -0.059 L 49.377 1.704 c -2.496 -2.29 -6.259 -2.29 -8.754 0 L 5.54 33.911 c -0.005 0.005 -0.013 0.006 -0.018 0.011 c -1.023 0.964 -1.609 2.324 -1.609 3.729 v 47.224 c 0 1.382 0.555 2.633 1.448 3.556 c 0.006 0.007 0.008 0.017 0.015 0.023 c 0.004 0.005 0.01 0.007 0.014 0.012 c 0.204 0.207 0.431 0.39 0.667 0.561 c 0.039 0.028 0.073 0.066 0.112 0.093 c 0.19 0.129 0.4 0.229 0.607 0.331 c 0.349 0.173 0.711 0.313 1.091 0.402 c 0.048 0.011 0.092 0.033 0.14 0.043 C 8.344 89.964 8.688 90 9.038 90 h 71.924 c 0.35 0 0.695 -0.036 1.03 -0.104 c 0.047 -0.01 0.088 -0.031 0.134 -0.041 c 0.383 -0.089 0.747 -0.229 1.097 -0.404 c 0.207 -0.103 0.417 -0.202 0.607 -0.331 c 0.039 -0.027 0.072 -0.063 0.111 -0.091 c 0.237 -0.171 0.465 -0.355 0.669 -0.563 c 0.004 -0.004 0.009 -0.007 0.013 -0.011 c 0.006 -0.006 0.008 -0.016 0.014 -0.022 c 0.893 -0.923 1.449 -2.174 1.449 -3.557 V 37.651 z M 57.366 63.837 l 26.341 -27.649 c 0.239 0.447 0.379 0.942 0.379 1.464 v 47.224 c 0 0.512 -0.136 0.988 -0.355 1.415 L 57.366 63.837 z M 41.976 3.178 c 1.725 -1.583 4.324 -1.583 6.049 0 L 82.362 34.7 L 55.842 62.538 l -10.193 -8.681 c -0.374 -0.318 -0.923 -0.318 -1.297 0 l -10.193 8.681 L 7.638 34.7 L 41.976 3.178 z M 6.268 86.29 c -0.219 -0.427 -0.355 -0.904 -0.355 -1.415 V 37.651 c 0 -0.524 0.14 -1.018 0.379 -1.464 l 26.341 27.65 L 6.268 86.29 z M 9.038 88 c -0.225 0 -0.446 -0.027 -0.661 -0.074 c -0.066 -0.014 -0.127 -0.041 -0.192 -0.06 c -0.146 -0.042 -0.291 -0.086 -0.429 -0.149 c -0.017 -0.008 -0.032 -0.018 -0.048 -0.026 l 27.026 -23.016 c 0 0 0 0 0.001 0 L 45 55.933 l 10.265 8.742 c 0.001 0.001 0.002 0.001 0.003 0.002 l 27.025 23.015 c -0.017 0.008 -0.033 0.02 -0.051 0.028 c -0.136 0.062 -0.279 0.105 -0.423 0.147 c -0.066 0.019 -0.128 0.046 -0.196 0.061 C 81.408 87.973 81.187 88 80.962 88 H 9.038 z" style="stroke: none; stroke-width: 1; stroke-dasharray: none; stroke-linecap: butt; stroke-linejoin: miter; stroke-miterlimit: 10; fill: rgb(0,0,0); fill-rule: nonzero; opacity: 1;" transform=" matrix(1 0 0 1 0 0) " stroke-linecap="round" />
	<path d="M 40.334 30.532 c 1.026 0 1.858 -0.832 1.858 -1.858 c 0 -1.026 -0.832 -1.858 -1.858 -1.858 c -1.026 0 -1.858 0.832 -1.858 1.858 C 38.477 29.701 39.308 30.532 40.334 30.532 z" style="stroke: none; stroke-width: 1; stroke-dasharray: none; stroke-linecap: butt; stroke-linejoin: miter; stroke-miterlimit: 10; fill: rgb(0,0,0); fill-rule: nonzero; opacity: 1;" transform=" matrix(1 0 0 1 0 0) " stroke-linecap="round" />
	<path d="M 49.666 30.532 c 1.026 0 1.858 -0.832 1.858 -1.858 c 0 -1.026 -0.832 -1.858 -1.858 -1.858 c -1.026 0 -1.858 0.832 -1.858 1.858 C 47.808 29.701 48.64 30.532 49.666 30.532 z" style="stroke: none; stroke-width: 1; stroke-dasharray: none; stroke-linecap: butt; stroke-linejoin: miter; stroke-miterlimit: 10; fill: rgb(0,0,0); fill-rule: nonzero; opacity: 1;" transform=" matrix(1 0 0 1 0 0) " stroke-linecap="round" />
	<path d="M 35.72 39.748 v 4.791 c 0 2.45 1.994 4.444 4.445 4.444 h 9.67 c 2.45 0 4.444 -1.994 4.444 -4.444 v -4.791 c 3.327 -2.859 5.121 -6.981 4.938 -11.385 c -0.305 -7.298 -6.494 -13.406 -13.797 -13.616 c -3.874 -0.12 -7.553 1.314 -10.335 4.017 c -2.782 2.703 -4.314 6.328 -4.314 10.206 C 30.771 33.135 32.568 37.036 35.72 39.748 z M 36.479 20.198 c 2.303 -2.237 5.316 -3.458 8.519 -3.458 c 0.121 0 0.243 0.002 0.365 0.005 c 6.275 0.181 11.595 5.43 11.856 11.7 c 0.164 3.925 -1.501 7.589 -4.566 10.054 c -0.235 0.19 -0.373 0.477 -0.373 0.779 v 5.26 c 0 1.348 -1.097 2.444 -2.444 2.444 H 46 v -5.531 c 0 -0.552 -0.448 -1 -1 -1 s -1 0.448 -1 1 v 5.531 h -3.835 c -1.348 0 -2.445 -1.097 -2.445 -2.444 v -5.26 c 0 -0.303 -0.137 -0.589 -0.374 -0.779 c -2.908 -2.338 -4.576 -5.812 -4.576 -9.53 C 32.771 25.637 34.087 22.521 36.479 20.198 z" style="stroke: none; stroke-width: 1; stroke-dasharray: none; stroke-linecap: butt; stroke-linejoin: miter; stroke-miterlimit: 10; fill: rgb(0,0,0); fill-rule: nonzero; opacity: 1;" transform=" matrix(1 0 0 1 0 0) " stroke-linecap="round" />
	<path d="M 45 36.89 c 0.552 0 1 -0.448 1 -1 v -2.132 c 0 -0.552 -0.448 -1 -1 -1 s -1 0.448 -1 1 v 2.132 C 44 36.442 44.448 36.89 45 36.89 z" style="stroke: none; stroke-width: 1; stroke-dasharray: none; stroke-linecap: butt; stroke-linejoin: miter; stroke-miterlimit: 10; fill: rgb(0,0,0); fill-rule: nonzero; opacity: 1;" transform=" matrix(1 0 0 1 0 0) " stroke-linecap="round" />
</g>
</svg>